<!DOCTYPE svg PUBLIC "-//W3C//DTD SVG 1.1//EN" "http://www.w3.org/Graphics/SVG/1.1/DTD/svg11.dtd">

<!-- Uploaded to: SVG Repo, www.svgrepo.com, Transformed by: SVG Repo Mixer Tools -->
<svg fill="#8fd9bc" version="1.1" id="Capa_1" xmlns="http://www.w3.org/2000/svg" xmlns:xlink="http://www.w3.org/1999/xlink" width="800px" height="800px" viewBox="0 0 425.652 425.652" xml:space="preserve" stroke="#8fd9bc">

<g id="SVGRepo_bgCarrier" stroke-width="0"/>

<g id="SVGRepo_tracerCarrier" stroke-linecap="round" stroke-linejoin="round"/>

<g id="SVGRepo_iconCarrier"> <g> <path d="M412.521,197.834c-2.201-2.514-15.938-17.646-36.758-28.667c12.521-19.947,16.853-39.917,17.503-43.194l3.876-19.55 l-18.867-6.422c-1.948-0.663-19.68-6.48-41.822-6.48c-1.464,0-2.913,0.025-4.351,0.076c0.875-23.562-5.374-43.054-6.451-46.22 l-6.423-18.866l-19.549,3.876c-3.276,0.65-23.247,4.981-43.195,17.503c-11.019-20.82-26.15-34.556-28.664-36.758L212.825,0 l-14.994,13.132c-2.514,2.201-17.646,15.938-28.665,36.759c-19.951-12.522-39.924-16.854-43.201-17.505l-19.553-3.877l-6.42,18.871 c-1.077,3.166-7.322,22.655-6.444,46.217c-1.437-0.051-2.888-0.076-4.351-0.076c-22.149,0-39.876,5.818-41.825,6.481l-18.862,6.422 l3.873,19.546c0.649,3.277,4.98,23.25,17.501,43.198c-20.819,11.02-34.555,26.153-36.756,28.667L0.001,212.827l13.127,14.992 c2.201,2.514,15.938,17.647,36.758,28.669c-12.524,19.953-16.854,39.931-17.503,43.209l-3.873,19.552l18.87,6.418 c1.947,0.662,19.666,6.472,41.798,6.472c1.471,0,2.927-0.025,4.37-0.078c-0.877,23.56,5.367,43.051,6.444,46.217l6.42,18.872 l19.554-3.878c3.277-0.65,23.249-4.983,43.2-17.506c11.019,20.819,26.152,34.558,28.666,36.759l14.994,13.128l14.993-13.13 c2.514-2.201,17.646-15.938,28.666-36.757c19.947,12.521,39.917,16.853,43.193,17.503l19.551,3.876l6.422-18.866 c1.077-3.166,7.325-22.659,6.451-46.22c1.437,0.05,2.886,0.076,4.349,0.076c0.003,0,0.003,0,0.006,0 c22.146,0,39.873-5.82,41.821-6.482l18.864-6.424l-3.876-19.547c-0.65-3.277-4.982-23.248-17.504-43.195 c20.82-11.02,34.557-26.151,36.758-28.665l13.131-14.993L412.521,197.834z M246.484,174.509l4.332,0.326l0.333,4.338 c0.046,0.705,0.33,7.011-3.807,11.173c-1.078,1.057-2.404,1.969-3.99,2.76l-3.502,1.747l-2.537-2.979 c-1.077-1.266-2.266-2.452-3.528-3.527l-2.983-2.54l1.754-3.504c0.793-1.588,1.705-2.913,2.709-3.939 c3.525-3.503,8.49-3.876,10.463-3.876C246.208,174.487,246.484,174.509,246.484,174.509z M227.274,183.747l-3.708-1.318 c-1.556-0.553-3.179-0.987-4.825-1.291l-3.833-0.708l-0.249-3.889c-0.118-1.825,0.009-3.401,0.389-4.82 c1.526-5.691,7.146-8.585,7.78-8.896l3.924-1.922l2.431,3.631c0.395,0.589,3.805,5.913,2.277,11.594 c-0.376,1.393-1.04,2.806-2.031,4.325L227.274,183.747z M231.458,249.521c1.528,5.687-1.882,11.011-2.275,11.6l-2.431,3.631 l-3.924-1.922c-0.636-0.312-6.254-3.205-7.778-8.889c-0.371-1.393-0.504-2.952-0.406-4.776l0.213-3.938l3.879-0.711 c1.648-0.304,3.273-0.736,4.832-1.291l3.708-1.317l2.153,3.295C230.419,246.721,231.083,248.135,231.458,249.521z M212.826,28.074 c0,0,22.757,19.929,22.757,44.505c0,24.581-22.757,58.459-22.757,58.459S190.07,97.16,190.07,72.579 C190.07,48.003,212.826,28.074,212.826,28.074z M211.013,176.524l-0.237,3.905l-3.849,0.708c-1.64,0.303-3.267,0.737-4.835,1.293 l-3.687,1.307l-2.155-3.264c-1.002-1.518-1.673-2.938-2.052-4.343c-1.519-5.688,1.886-11.008,2.279-11.596l2.43-3.633l3.925,1.922 c0.636,0.311,6.257,3.205,7.782,8.889C210.993,173.134,211.123,174.705,211.013,176.524z M210.616,253.934 c-1.527,5.69-7.146,8.584-7.782,8.896l-3.925,1.922l-2.43-3.632c-0.394-0.588-3.8-5.908-2.285-11.584 c0.383-1.418,1.054-2.838,2.056-4.355l2.157-3.267l3.689,1.312c1.555,0.554,3.18,0.986,4.83,1.291l3.849,0.709l0.237,3.904 C211.123,250.949,210.993,252.52,210.616,253.934z M174.52,179.171l0.284-4.33l4.379-0.331c0,0,0.278-0.021,0.761-0.021 c1.975,0,6.942,0.374,10.409,3.836c1.037,1.051,1.954,2.38,2.754,3.976l1.758,3.509l-2.991,2.541 c-1.249,1.062-2.438,2.249-3.533,3.53l-2.543,2.977l-3.499-1.755c-1.597-0.801-2.923-1.718-3.94-2.725 C174.187,186.183,174.474,179.877,174.52,179.171z M164.533,196.475c0.666-0.445,4.211-2.67,8.548-2.67 c1.049,0,2.073,0.133,3.045,0.395c1.395,0.374,2.813,1.039,4.333,2.031l3.297,2.154l-1.321,3.709 c-0.548,1.54-0.983,3.166-1.295,4.833l-0.713,3.819l-3.878,0.252c-0.424,0.027-0.849,0.043-1.267,0.043 c-1.302,0-2.502-0.146-3.566-0.434c-5.669-1.522-8.575-7.132-8.889-7.767l-1.937-3.93L164.533,196.475z M102.746,302.66 c-21.286,12.29-49.92,2.544-49.92,2.544s5.876-29.678,27.162-41.962c21.288-12.29,62.006-9.52,62.006-9.52 S124.033,290.369,102.746,302.66z M79.988,162.412c-21.286-12.283-27.162-41.962-27.162-41.962s28.635-9.746,49.92,2.544 c21.287,12.292,39.248,48.938,39.248,48.938S101.276,174.702,79.988,162.412z M173.08,231.848c-4.336,0-7.881-2.225-8.547-2.67 l-3.643-2.437l1.937-3.931c0.313-0.635,3.22-6.243,8.894-7.769c1.398-0.377,3.081-0.5,4.824-0.391l3.881,0.249l0.714,3.824 c0.312,1.666,0.747,3.293,1.295,4.832l1.321,3.709l-3.297,2.154c-1.521,0.992-2.938,1.657-4.335,2.032 C175.154,231.717,174.13,231.848,173.08,231.848C173.081,231.848,173.081,231.848,173.08,231.848z M179.185,251.145l-4.33-0.324 l-0.335-4.338c-0.046-0.704-0.333-7.012,3.809-11.176c1.045-1.035,2.368-1.951,3.964-2.752l3.5-1.762l2.546,2.979 c1.093,1.277,2.283,2.469,3.539,3.537l2.978,2.537l-1.747,3.502c-0.794,1.592-1.71,2.92-2.724,3.949 c-3.499,3.495-8.467,3.869-10.442,3.869C179.462,251.167,179.185,251.145,179.185,251.145z M212.826,397.58 c0,0-22.756-19.929-22.756-44.504c0-24.582,22.756-58.46,22.756-58.46s22.757,33.878,22.757,58.46 C235.583,377.651,212.826,397.58,212.826,397.58z M251.149,246.48l-0.282,4.332l-4.381,0.332c0,0-0.278,0.021-0.761,0.021 c-1.974,0-6.938-0.373-10.412-3.827c-1.057-1.076-1.967-2.402-2.76-3.986l-1.752-3.504l2.982-2.541 c1.264-1.074,2.451-2.262,3.529-3.526l2.537-2.979l3.5,1.748c1.584,0.789,2.908,1.699,3.938,2.705 C251.479,239.471,251.195,245.775,251.149,246.48z M261.125,229.178c-0.666,0.445-4.21,2.672-8.548,2.672 c-1.049,0-2.072-0.133-3.045-0.395c-1.395-0.377-2.807-1.041-4.325-2.032l-3.295-2.153l1.317-3.707 c0.554-1.556,0.988-3.18,1.291-4.825l0.707-3.833l3.891-0.249c1.729-0.113,3.409,0.011,4.82,0.388 c5.689,1.527,8.584,7.146,8.896,7.781l1.922,3.924L261.125,229.178z M262.836,202.834c-0.312,0.635-3.209,6.251-8.889,7.776 c-1.077,0.287-2.276,0.432-3.573,0.432c-0.415,0-0.836-0.015-1.256-0.042l-3.891-0.249l-0.707-3.833 c-0.303-1.646-0.737-3.271-1.291-4.825l-1.317-3.708l3.295-2.153c1.519-0.991,2.933-1.655,4.319-2.03 c0.979-0.263,2.002-0.396,3.051-0.396c4.338,0,7.883,2.225,8.55,2.67l3.635,2.432L262.836,202.834z M322.909,302.66 c-21.291-12.291-39.25-48.938-39.25-48.938s40.718-2.771,62.004,9.52c21.286,12.284,27.163,41.962,27.163,41.962 S344.193,314.95,322.909,302.66z M345.663,162.412c-21.286,12.29-62.004,9.52-62.004,9.52s17.959-36.646,39.25-48.938 c21.284-12.29,49.917-2.544,49.917-2.544S366.949,150.129,345.663,162.412z"/> </g> </g>

</svg>