<!DOCTYPE svg PUBLIC "-//W3C//DTD SVG 1.1//EN" "http://www.w3.org/Graphics/SVG/1.1/DTD/svg11.dtd">

<!-- Uploaded to: SVG Repo, www.svgrepo.com, Transformed by: SVG Repo Mixer Tools -->
<svg fill="#8d188c" version="1.1" id="Capa_1" xmlns="http://www.w3.org/2000/svg" xmlns:xlink="http://www.w3.org/1999/xlink" width="800px" height="800px" viewBox="0 0 412.387 412.387" xml:space="preserve" stroke="#8d188c">

<g id="SVGRepo_bgCarrier" stroke-width="0"/>

<g id="SVGRepo_tracerCarrier" stroke-linecap="round" stroke-linejoin="round"/>

<g id="SVGRepo_iconCarrier"> <g> <g> <path d="M226.277,206.762c-0.348-0.2-0.695-0.385-1.047-0.561c0.344-0.183,0.692-0.373,1.047-0.578 c13.224-7.634,12.246-19.536,12.246-19.536c-9.733,5.622-12.809-2.192-21.795,2.995c-0.348,0.201-0.684,0.411-1.011,0.627 c0.017-0.389,0.024-0.786,0.024-1.195c0-15.268-10.794-20.374-10.794-20.374c0,11.243-8.304,9.996-8.304,20.374 c0,0.399,0.013,0.794,0.037,1.186c-0.328-0.207-0.668-0.412-1.022-0.617c-13.222-7.634-23.042-0.837-23.042-0.837 c9.736,5.621,4.505,12.19,13.492,17.378c0.348,0.2,0.696,0.385,1.048,0.561c-0.344,0.183-0.693,0.373-1.048,0.578 c-13.223,7.634-12.246,19.535-12.246,19.535c9.734-5.621,12.809,2.192,21.796-2.995c0.347-0.199,0.683-0.41,1.01-0.627 c-0.016,0.391-0.024,0.787-0.024,1.195c0,15.269,10.794,20.375,10.794,20.375c0-11.243,8.303-9.996,8.303-20.375 c0-0.399-0.012-0.795-0.036-1.186c0.327,0.207,0.668,0.412,1.022,0.616c13.221,7.634,23.041,0.839,23.041,0.839 C230.033,218.52,235.265,211.949,226.277,206.762z"/> <path d="M315.029,209.275c-1.879-1.084-3.773-2.086-5.678-3.04c1.867-0.988,3.752-2.015,5.678-3.126 c71.65-41.368,66.359-105.857,66.359-105.857c-52.752,30.457-69.406-11.89-118.107,16.228c-1.879,1.084-3.695,2.224-5.473,3.396 c0.078-2.111,0.133-4.257,0.133-6.479C257.941,27.663,199.446,0,199.446,0c0,60.913-45.001,54.163-45.001,110.398 c0,2.164,0.079,4.303,0.205,6.423c-1.784-1.119-3.627-2.232-5.545-3.34C77.455,72.113,24.25,108.94,24.25,108.94 c52.753,30.457,24.406,66.053,73.107,94.171c1.878,1.084,3.773,2.087,5.678,3.04c-1.868,0.988-3.753,2.015-5.678,3.126 c-71.65,41.367-66.36,105.856-66.36,105.856c52.753-30.457,69.407,11.89,118.108-16.228c1.878-1.084,3.694-2.225,5.472-3.396 c-0.078,2.111-0.132,4.258-0.132,6.479c0,82.736,58.495,110.398,58.495,110.398c0-60.912,45.002-54.162,45.002-110.398 c0-2.164-0.08-4.303-0.205-6.422c1.783,1.119,3.627,2.231,5.545,3.34c71.65,41.367,124.855,4.541,124.855,4.541 C335.383,272.99,363.73,237.395,315.029,209.275z M225.02,236.768c-0.633-0.367-1.24-0.732-1.83-1.103 c0.043,0.7,0.069,1.403,0.069,2.118c0,18.545-14.842,16.318-14.842,36.404c0,0-19.289-9.121-19.289-36.404 c0-0.732,0.018-1.441,0.043-2.139c-0.586,0.387-1.186,0.764-1.804,1.123c-16.06,9.271-21.554-4.691-38.951,5.353 c0,0-1.743-21.269,21.885-34.91c0.634-0.367,1.256-0.704,1.874-1.031c-0.63-0.314-1.253-0.645-1.874-1.002 c-16.061-9.272-6.712-21.012-24.108-31.055c0,0,17.546-12.146,41.174,1.497c0.632,0.366,1.239,0.732,1.829,1.101 c-0.042-0.699-0.069-1.403-0.069-2.117c0-18.545,14.842-16.318,14.842-36.405c0,0,19.289,9.121,19.289,36.405 c0,0.732-0.018,1.441-0.043,2.138c0.586-0.387,1.186-0.764,1.805-1.121c16.059-9.271,21.553,4.691,38.951-5.353 c0,0,1.742,21.269-21.886,34.91c-0.634,0.366-1.257,0.704-1.874,1.031c0.63,0.313,1.253,0.645,1.874,1.002 c16.062,9.272,6.712,21.013,24.108,31.056C266.193,238.264,248.646,250.41,225.02,236.768z"/> </g> </g> </g>

</svg>