<!DOCTYPE svg PUBLIC "-//W3C//DTD SVG 1.1//EN" "http://www.w3.org/Graphics/SVG/1.1/DTD/svg11.dtd">

<!-- Uploaded to: SVG Repo, www.svgrepo.com, Transformed by: SVG Repo Mixer Tools -->
<svg fill="#df6cbb" version="1.1" id="Capa_1" xmlns="http://www.w3.org/2000/svg" xmlns:xlink="http://www.w3.org/1999/xlink" width="800px" height="800px" viewBox="0 0 378.371 378.371" xml:space="preserve" stroke="#df6cbb">

<g id="SVGRepo_bgCarrier" stroke-width="0"/>

<g id="SVGRepo_tracerCarrier" stroke-linecap="round" stroke-linejoin="round"/>

<g id="SVGRepo_iconCarrier"> <g> <g> <path d="M319.006,183.076c-8.965-2.401-19.715-3.776-32.007-4.109c11.017-2.646,21.521-6.109,30.464-10.655 c19.912-10.118,33.313-21.178,39.83-32.872c5.832-10.461,6.09-21.546,0.748-32.056c-5.23-10.295-14.033-16.538-25.563-18.183 c2.012-11.472-1.195-21.775-9.359-29.939c-6.61-6.612-14.473-9.965-23.362-9.965c-14.952,0-32.095,9.56-50.947,28.413 c-7.078,7.077-13.608,15.955-19.529,25.573c3.199-10.831,5.438-21.623,5.972-31.618c1.193-22.305-1.685-39.44-8.552-50.932 c-6.146-10.279-15.614-16.046-27.388-16.676C198.61,0.019,197.912,0,197.217,0c-10.607,0-19.691,4.518-26.433,13.103 c-6.423-5.396-13.59-8.128-21.342-8.128c-3.019,0-6.138,0.426-9.269,1.265c-14.25,3.818-35.949,18.454-21.178,73.579 c2.591,9.669,7.012,19.765,12.382,29.699c-7.781-8.186-16.008-15.52-24.397-20.98C88.567,76.553,72.508,70.475,59.25,70.475 c-12.282,0-22.237,5.32-28.789,15.385c-6.3,9.678-7.306,20.423-2.964,31.23c-10.94,3.993-18.261,11.923-21.25,23.076 c-3.051,11.388-0.505,22.18,7.363,31.208c8.795,10.093,24.194,18.142,45.769,23.922c8.964,2.401,19.715,3.776,32.007,4.11 c-11.017,2.646-21.519,6.109-30.462,10.654c-50.878,25.854-47.264,51.775-40.581,64.928c5.231,10.295,14.034,16.537,25.564,18.183 c-2.012,11.472,1.195,21.776,9.36,29.94c6.611,6.611,14.471,9.965,23.361,9.965c0.001,0,0,0,0.001,0 c14.953,0,32.095-9.561,50.948-28.413c7.078-7.078,13.611-15.956,19.531-25.576c-3.199,10.832-5.438,21.625-5.972,31.621 c-3.048,56.987,21.208,66.819,35.939,67.606c0.701,0.037,1.399,0.057,2.093,0.057c10.606,0,19.691-4.518,26.434-13.102 c6.423,5.395,13.59,8.127,21.342,8.127c3.021,0,6.14-0.426,9.271-1.264c14.249-3.818,35.947-18.455,21.178-73.58 c-2.591-9.668-7.013-19.764-12.383-29.699c7.78,8.186,16.008,15.52,24.396,20.979c18.412,11.985,34.471,18.063,47.731,18.063 c0,0,0,0,0.002,0c12.279,0,22.234-5.32,28.785-15.385c6.301-9.679,7.307-20.423,2.965-31.229 c10.941-3.994,18.262-11.923,21.25-23.077C375.957,223.957,374.129,197.848,319.006,183.076z M189.186,239.186 c-27.613,0-50-22.387-50-50c0-27.613,22.387-50,50-50c27.616,0,50,22.387,50,50C239.186,216.799,216.802,239.186,189.186,239.186z "/> <circle cx="189.186" cy="189.186" r="26.5"/> </g> </g> </g>

</svg>