<!DOCTYPE svg PUBLIC "-//W3C//DTD SVG 1.1//EN" "http://www.w3.org/Graphics/SVG/1.1/DTD/svg11.dtd">

<!-- Uploaded to: SVG Repo, www.svgrepo.com, Transformed by: SVG Repo Mixer Tools -->
<svg fill="#028bde" version="1.1" id="Capa_1" xmlns="http://www.w3.org/2000/svg" xmlns:xlink="http://www.w3.org/1999/xlink" width="800px" height="800px" viewBox="0 0 406.793 406.792" xml:space="preserve">

<g id="SVGRepo_bgCarrier" stroke-width="0"/>

<g id="SVGRepo_tracerCarrier" stroke-linecap="round" stroke-linejoin="round"/>

<g id="SVGRepo_iconCarrier"> <g> <g> <path d="M405.746,171.847c-4.641-26.319-23.795-46.42-47.775-53.563c5.806-24.34-2.025-50.979-22.499-68.158 s-48.066-20.265-71.028-10.321c-11.199-22.377-34.321-37.749-61.047-37.749c-26.727,0-49.848,15.372-61.046,37.749 c-22.962-9.943-50.556-6.856-71.028,10.322c-20.472,17.178-28.305,43.817-22.499,68.156 c-23.981,7.143-43.136,27.244-47.776,53.563c-4.64,26.319,6.482,51.76,26.575,66.674c-13.779,20.886-15.532,48.597-2.169,71.741 c13.363,23.144,38.236,35.482,63.215,33.992c2.869,24.857,19.339,47.212,44.453,56.353c25.113,9.141,52.098,2.604,70.275-14.594 c18.176,17.197,45.161,23.733,70.275,14.594c25.112-9.141,41.583-31.494,44.452-56.353c24.979,1.49,49.853-10.848,63.216-33.992 c13.361-23.145,11.609-50.854-2.17-71.741C399.263,223.607,410.387,198.168,405.746,171.847z M203.396,323.399 c-66.277,0-120-53.728-120-120c0-66.272,53.723-120,120-120c66.277,0,120,53.728,120,120 C323.396,269.671,269.674,323.399,203.396,323.399z"/> <path d="M203.396,118.397c-46.943,0-85,38.056-85,85c0,46.944,38.057,85,85,85c46.938,0,85-38.056,85-85 C288.396,156.453,250.335,118.397,203.396,118.397z"/> </g> </g> </g>

</svg>